<?xml version="1.0" encoding="UTF-8"?>
<svg id="Camada_2" data-name="Camada 2" xmlns="http://www.w3.org/2000/svg" viewBox="0 0 344 435.8">
  <g id="Camada_5" data-name="Camada 5">
    <g>
      <path d="M146.4,8.9c-6-1.2-12.3-1.8-18.7-1.8s-6.9.2-10,.5h0c-7.7,2.4-14,5-19.7,7,1.8.2,29.4-2.8,69.9,2.6-7.4-4.2-14.5-7-21.5-8.3ZM39.7,94.7c0-.3,0-.7.1-1,0-.5.1-1,.2-1.5,0,.5-.1,1-.2,1.5,0,.3,0,.6-.1,1Z" fill="#fff" stroke-width="0"/>
      <path d="M299.7,396.9s0,0,0,0c-1.7,1.2-2.6,1.9-2.6,1.9,0,0-32-89-74-132s-61.8-42.8-78-48c-25.5-8.3-50.1.9-53.3,1.3-2.6.4-5.1.8-7.7,1.1-3.7.5-7.5.8-11.3.8-5,0-10.1,1.5-15.1,2.5-6.1,1.2-12.2,1.3-18-1.3-5-2.3-10.7-2.3-15.6-4.8-14-7.2-21.7-18.8-23.8-34-1-7.8,2.4-14.2,8.4-19.4,5.2-4.5,10-9.3,14.5-14.4,11.4-12.8,20.7-27.2,28.3-42.9,1.9-3.9,2.9-8.2,3.4-12.4,1.3-11.4,7.7-19.7,15.2-27.5,3.8-4,8-7.5,10.8-12.5,1-1.8,1.4-2.7-.1-4.2-1-1-2-1.8-3.1-2.6-5.3-3.9-9.5-8.4-12.4-13.7-2.8-4.9-4.5-10.4-4.9-16.6-.3-3.7,1.1-4.9,4.7-4.6,4.8.4,9.2,2,13.5,3.7,3.1,1.2,6.1,2.7,9.1,3.9,3.9,1.6,7.9,3.1,12.3,3.6,5.6.7,22.1-5.4,43.8-1.2,8.8,1.7,17.4,6.4,24.8,11.6,10.8,7.6,19,16,21.1,16.9,8.9,3.6,18.3,2.6,27.5,3.4,11.2.9,21.2,4.9,30,12.1,2.6,2.2,3.2,4.4,1.4,7.6-7.5,13.3-19.4,20.2-33.5,24.1-4.4,1.2-4.6,1.2-1.5,4.8,5.3,6.2,16.7,21.8,30.3,41.6,3,4.4,6.2,9.1,9.4,13.9,29.4,43.9,50.9,28.2,77.9,111.2,23.3,71.5-20.9,118.2-31.3,126.1Z" fill="#fff" stroke-width="0"/>
      <g>
        <path d="M61.7,54.8c-.9.9-1.8,1.8-2.6,2.7-1.3,1.4-2.7,2.8-4,4.3-.5.6-1.1,1.2-1.6,1.9s-1,1.3-1.5,1.9c-.4.5-.8,1-1.1,1.5s-.8,1-1.1,1.5c-.4.5-.7,1-1.1,1.6-.4.5-.7,1.1-1,1.6-1.8,2.9-3.4,6-4.7,9.5-.2.4-.3.9-.5,1.3,0,.1,0,.2-.1.3-.1.3-.2.6-.3,1-.2.4-.3.9-.4,1.3-.2.6-.3,1.1-.5,1.7-.1.5-.3,1-.4,1.6,0,.1,0,.2,0,.4,0,.2,0,.4-.1.5,0,.2,0,.4-.1.6-.2.8-.3,1.5-.4,2.3,0,.5-.1,1-.2,1.5,0,.3,0,.7-.1,1,0,.3,0,.6-.2,1,0,.3,0,.5-.1.8,0,.2,0,.4-.1.6,0,.1,0,.2,0,.4,0,.2,0,.3-.1.5-.2.6-.4,1.2-.6,1.8,0,.2-.1.3-.2.5-.1.3-.3.6-.4.9-.5,1-.9,1.9-1.4,2.9,0,0,0,.2-.1.3-.4.8-.8,1.6-1.2,2.4-.5.9-1,1.8-1.5,2.8-.3.6-.7,1.3-1,1.9-.2.3-.4.7-.6,1-.2.4-.4.8-.7,1.1-.9,1.6-1.9,3.2-2.8,4.8-.5.9-1.1,1.7-1.6,2.6-.6.9-1.2,1.8-1.8,2.7-.4-2-.7-4-.9-6-3.2-25.1,1.9-45.6,15.6-62.5,3.7-4.5,7.8-8.7,12.3-12.4.3.5.6,1.1,1,1.6.3.4.6.9.9,1.3.1.2.2.4.4.5.3.4.6.9.9,1.3,1.9,2.6,4,5.1,6.4,7.4Z" fill="#fff" stroke-width="0"/>
        <path d="M283.9,408c-33.8,20.1-79.9,27.8-115.1,27.8h-.9c-51.1-.2-140.4-20-150.2-93-1.1-8,.7-14.9,5.3-20.5,5.5-6.6,17.1-10.6,24.1-10.6,7,0,10,1,10,1,0,0,7,36,26,55s43,37,92,37,80.4-20.7,90-41c9.3,24.8,17.4,38.3,17.5,38.7l1.4,5.6Z" fill="#fff" stroke-width="0"/>
        <path d="M337.1,150.7c-6.4,8.7-27.3,11.8-33.4,9.5.2-7.5,0-15.2-1-23-3.5-27.2-23.5-93.4-88.2-110.7-16.8-4.5-32.5-7.4-46.7-9.3h0c-40.5-5.4-68.1-2.4-69.9-2.6,5.8-2,12-4.6,19.7-7h0c12.8-4,29.8-7.6,55.5-7.6,41.3,0,76.4,11.5,107.5,30.8,25.8,16,57.7,45,62.9,92.2,1.2,10.8-1,20.1-6.6,27.6Z" fill="#fff" stroke-width="0"/>
      </g>
      <path d="M242.9,327.3c.5,3.2-1.2,5.9-3,8.4-14,18.4-31,32.3-53,38-29,7.5-55.4.4-79.5-18-4.5-3.5-8.7-7.5-13-11.3-5.2-4.6-6-11.6-1.9-16.3,3.6-4.2,9.4-3.9,14.3,1.3,14.6,15.5,31.8,24.9,52.5,26.5,22.6,1.8,41.8-5.9,57.7-22.7,3.7-3.9,6.9-8.5,10.7-12.3,2.5-2.6,5.5-4.4,9.4-2.6,3.7,1.7,5.7,4.6,5.8,9.2Z" fill="#fff" stroke-width="0"/>
      <path d="M170.5,336.9c-23.8,1.1-40.6-7.5-54.1-23.9-3.2-3.9-4.9-8.4-2.3-13.5,2.2-4.2,5.8-4.8,9.8-4.2,3,.5,4.9,2.8,6.7,5.2,16.7,22.1,52.6,22.9,68.2-3.8,1.4-2.3,2.8-4.9,5.4-5.8,3.5-1.3,7.4-1.3,9.8,1.4,2.4,2.7,3.2,6.8,2,10.8-.9,3.2-2.8,5.9-4.7,8.6-11,15.4-25.6,24.1-41,25.2Z" fill="#fff" stroke-width="0"/>
      <path d="M182.4,275c.5,11-7.1,19.9-17.5,20.4-10.7.5-19.6-8.1-20.1-19.4-.5-10.6,7.5-19.5,17.9-20,10.7-.5,19.2,7.7,19.7,19Z" fill="#fff" stroke-width="0"/>
    </g>
  </g>
</svg>