<?xml version="1.0" encoding="UTF-8"?>
<svg id="Camada_2" data-name="Camada 2" xmlns="http://www.w3.org/2000/svg" xmlns:xlink="http://www.w3.org/1999/xlink" viewBox="0 0 1659.4 967.4">
  <defs>
    <clipPath id="clippath">
      <path d="M1245.7,724c-.3,34.2-7.4,67-23.5,97.4-17.9,33.9-42.6,61.4-75.2,82.2-22.4,14.3-46.5,23.8-72.3,29.3-17.3,3.6-34.8,4.8-52.4,4.8-149.1,0-298.2,0-447.4,0-37.5,0-73.2-7.3-106.5-25.1-26.7-14.3-49.5-33.3-68.4-57-5.6-7-10-14.7-14.9-22.2-13.7-20.6-21.6-43.2-26.7-67.1-3-14.2-4.3-28.6-4.3-43.1,0-159.1,0-318.2,0-477.4,0-36.2,8.9-70.2,27.7-101.2,28.9-47.7,70.3-79,124.4-93,16.4-4.3,33.3-6.3,50.3-6.3,80.8,0,161.6,0,242.4,0h0c78.5.1,157,.1,235.4,0,14.9,0,29.6,1.2,44.2,3.9,20.8,3.7,40.9,9.7,59.5,20,54.3,30,89.9,74.3,103.3,135.5,3,13.5,4.2,27.3,4.3,41.2,0,118,0,235.9.1,353.9,0,41.4.2,82.7-.1,124.1Z" fill="none" stroke-width="0"/>
    </clipPath>
    <clipPath id="clippath-1">
      <rect width="1659.4" height="967.4" fill="none" stroke-width="0"/>
    </clipPath>
    <linearGradient id="linear-gradient" x1="126.6" y1="875.7" x2="1776.5" y2="-44.1" gradientUnits="userSpaceOnUse">
      <stop offset="0" stop-color="#0067b0"/>
      <stop offset=".4" stop-color="#088f7f"/>
      <stop offset="1" stop-color="#ecf955"/>
    </linearGradient>
    <linearGradient id="linear-gradient-2" x1="-505.5" y1="6447.8" x2="300.5" y2="6594.8" gradientTransform="translate(1118.3 -6103)" gradientUnits="userSpaceOnUse">
      <stop offset="0" stop-color="#fff"/>
      <stop offset="1" stop-color="#000"/>
    </linearGradient>
    <mask id="mask" x="1088.6" y="0" width="570.7" height="967.3" maskUnits="userSpaceOnUse">
      <rect x="1088.6" y="0" width="570.7" height="967.3" fill="url(#linear-gradient-2)" stroke-width="0"/>
    </mask>
    <linearGradient id="linear-gradient-3" x1="-1480.2" y1="5703.9" x2="281.9" y2="6694.3" gradientTransform="translate(1445.3 -6102.9)" xlink:href="#linear-gradient-2"/>
    <mask id="mask-1" x="1411.6" y="0" width="247.8" height="967.3" maskUnits="userSpaceOnUse">
      <rect x="1411.6" width="247.8" height="967.3" fill="url(#linear-gradient-3)" stroke-width="0"/>
    </mask>
    <linearGradient id="linear-gradient-4" x1="1362.6" y1="5422.3" x2="224.7" y2="6901.6" gradientTransform="translate(16.2 -6102.8)" xlink:href="#linear-gradient-2"/>
    <mask id="mask-2" x="0" y="296.8" width="738.1" height="670.6" maskUnits="userSpaceOnUse">
      <rect y="296.8" width="738.1" height="670.6" fill="url(#linear-gradient-4)" stroke-width="0"/>
    </mask>
    <linearGradient id="linear-gradient-5" x1="761.8" y1="5851.3" x2="441.8" y2="6793.6" gradientTransform="translate(16.2 -6102.8)" xlink:href="#linear-gradient-2"/>
    <mask id="mask-3" x="0" y="0" width="1056.7" height="967.4" maskUnits="userSpaceOnUse">
      <rect width="1056.7" height="967.4" fill="url(#linear-gradient-5)" stroke-width="0"/>
    </mask>
    <linearGradient id="linear-gradient-6" x1="1029.4" y1="5765.7" x2="677.6" y2="6912.3" gradientTransform="translate(16.2 -6102.8)" xlink:href="#linear-gradient-2"/>
    <mask id="mask-4" x="0" y="483.7" width="1439" height="483.7" maskUnits="userSpaceOnUse">
      <rect y="483.7" width="1439" height="483.7" fill="url(#linear-gradient-6)" stroke-width="0"/>
    </mask>
    <linearGradient id="linear-gradient-7" x1="7.6" y1="7658.5" x2="308.7" y2="6792.8" gradientTransform="translate(1025.4 -6544.6)" xlink:href="#linear-gradient-2"/>
    <mask id="mask-5" x="996.9" y="0" width="662.5" height="531.1" maskUnits="userSpaceOnUse">
      <rect x="996.9" width="662.5" height="531.1" fill="url(#linear-gradient-7)" stroke-width="0"/>
    </mask>
  </defs>
  <g id="Camada_5" data-name="Camada 5">
    <g>
      <g clip-path="url(#clippath)">
        <g>
          <g clip-path="url(#clippath-1)">
            <rect width="1659.4" height="967.4" fill="url(#linear-gradient)" stroke-width="0"/>
          </g>
          <g mask="url(#mask)">
            <path d="M1659.4,967.3V0h-570.7c.5,416.2,230.7,778.6,570.7,967.3" fill="#b0f122" fill-rule="evenodd" stroke-width="0"/>
          </g>
          <g mask="url(#mask-1)">
            <path d="M1659.4,967.3V0h-174.8c-46.9,108.1-73,227.3-73,352.6,0,238.7,94.4,455.3,247.8,614.7" fill="#ecf955" fill-rule="evenodd" stroke-width="0"/>
          </g>
          <g mask="url(#mask-2)">
            <path d="M0,967.4h738.1C587,660.2,322.9,418.6,0,296.8v670.6Z" fill="#102770" fill-rule="evenodd" stroke-width="0"/>
          </g>
          <g mask="url(#mask-3)">
            <path d="M0,0h177.5c461.2,106.8,816,491.1,879.2,967.4H0V0Z" fill="#004790" fill-rule="evenodd" stroke-width="0"/>
          </g>
          <g mask="url(#mask-4)">
            <path d="M0,967.4h1439c-237.7-294.9-601.9-483.7-1010.2-483.7S134.3,509.4,0,556.4v411Z" fill="#003780" fill-rule="evenodd" stroke-width="0"/>
          </g>
          <g mask="url(#mask-5)">
            <path d="M996.9,0h662.5v531.1C1347.2,503.6,1088.7,288.9,996.9,0" fill="#ecf955" fill-rule="evenodd" stroke-width="0"/>
          </g>
        </g>
      </g>
      <g>
        <g>
          <path d="M753.4,190.6c-6-1.2-12.3-1.8-18.7-1.8s-6.9.2-10,.5h0c-7.7,2.4-14,5-19.7,7,1.8.2,29.4-2.8,69.9,2.6-7.4-4.2-14.5-7-21.5-8.3ZM646.7,276.4c0-.3,0-.7.1-1,0-.5.1-1,.2-1.5,0,.5-.1,1-.2,1.5,0,.3,0,.6-.1,1Z" fill="#fff" stroke-width="0"/>
          <path d="M906.7,578.6s0,0,0,0c-1.7,1.2-2.6,1.9-2.6,1.9,0,0-32-89-74-132s-61.8-42.8-78-48c-25.5-8.3-50.1.9-53.3,1.3-2.6.4-5.1.8-7.7,1.1-3.7.5-7.5.8-11.3.8-5,0-10.1,1.5-15.1,2.5-6.1,1.2-12.2,1.3-18-1.3-5-2.3-10.7-2.3-15.6-4.8-14-7.2-21.7-18.8-23.8-34-1-7.8,2.4-14.2,8.4-19.4,5.2-4.5,10-9.3,14.5-14.4,11.4-12.8,20.7-27.2,28.3-42.9,1.9-3.9,2.9-8.2,3.4-12.4,1.3-11.4,7.7-19.7,15.2-27.5,3.8-4,8-7.5,10.8-12.5,1-1.8,1.4-2.7-.1-4.2-1-1-2-1.8-3.1-2.6-5.3-3.9-9.5-8.4-12.4-13.7-2.8-4.9-4.5-10.4-4.9-16.6-.3-3.7,1.1-4.9,4.7-4.6,4.8.4,9.2,2,13.5,3.7,3.1,1.2,6.1,2.7,9.1,3.9,3.9,1.6,7.9,3.1,12.3,3.6,5.6.7,22.1-5.4,43.8-1.2,8.8,1.7,17.4,6.4,24.8,11.6,10.8,7.6,19,16,21.1,16.9,8.9,3.6,18.3,2.6,27.5,3.4,11.2.9,21.2,4.9,30,12.1,2.6,2.2,3.2,4.4,1.4,7.6-7.5,13.3-19.4,20.2-33.5,24.1-4.4,1.2-4.6,1.2-1.5,4.8,5.3,6.2,16.7,21.8,30.3,41.6,3,4.4,6.2,9.1,9.4,13.9,29.4,43.9,50.9,28.2,77.9,111.2,23.3,71.5-20.9,118.2-31.3,126.1Z" fill="#fff" stroke-width="0"/>
          <g>
            <path d="M668.7,236.5c-.9.9-1.8,1.8-2.6,2.7-1.3,1.4-2.7,2.8-4,4.3-.5.6-1.1,1.2-1.6,1.9s-1,1.3-1.5,1.9c-.4.5-.8,1-1.1,1.5s-.8,1-1.1,1.5c-.4.5-.7,1-1.1,1.6-.4.5-.7,1.1-1,1.6-1.8,2.9-3.4,6-4.7,9.5-.2.4-.3.9-.5,1.3,0,.1,0,.2-.1.3-.1.3-.2.6-.3,1-.2.4-.3.9-.4,1.3-.2.6-.3,1.1-.5,1.7-.1.5-.3,1-.4,1.6,0,.1,0,.2,0,.4,0,.2,0,.4-.1.5,0,.2,0,.4-.1.6-.2.8-.3,1.5-.4,2.3,0,.5-.1,1-.2,1.5,0,.3,0,.7-.1,1,0,.3,0,.6-.2,1,0,.3,0,.5-.1.8,0,.2,0,.4-.1.6,0,.1,0,.2,0,.4,0,.2,0,.3-.1.5-.2.6-.4,1.2-.6,1.8,0,.2-.1.3-.2.5-.1.3-.3.6-.4.9-.5,1-.9,1.9-1.4,2.9,0,0,0,.2-.1.3-.4.8-.8,1.6-1.2,2.4-.5.9-1,1.8-1.5,2.8-.3.6-.7,1.3-1,1.9-.2.3-.4.7-.6,1-.2.4-.4.8-.7,1.1-.9,1.6-1.9,3.2-2.8,4.8-.5.9-1.1,1.7-1.6,2.6-.6.9-1.2,1.8-1.8,2.7-.4-2-.7-4-.9-6-3.2-25.1,1.9-45.6,15.6-62.5,3.7-4.5,7.8-8.7,12.3-12.4.3.5.6,1.1,1,1.6.3.4.6.9.9,1.3.1.2.2.4.4.5.3.4.6.9.9,1.3,1.9,2.6,4,5.1,6.4,7.4Z" fill="#fff" stroke-width="0"/>
            <path d="M890.9,589.8c-33.8,20.1-79.9,27.8-115.1,27.8h-.9c-51.1-.2-140.4-20-150.2-93-1.1-8,.7-14.9,5.3-20.5,5.5-6.6,17.1-10.6,24.1-10.6,7,0,10,1,10,1,0,0,7,36,26,55s43,37,92,37,80.4-20.7,90-41c9.3,24.8,17.4,38.3,17.5,38.7l1.4,5.6Z" fill="#fff" stroke-width="0"/>
            <path d="M944.1,332.4c-6.4,8.7-27.3,11.8-33.4,9.5.2-7.5,0-15.2-1-23-3.5-27.2-23.5-93.4-88.2-110.7-16.8-4.5-32.5-7.4-46.7-9.3h0c-40.5-5.4-68.1-2.4-69.9-2.6,5.8-2,12-4.6,19.7-7h0c12.8-4,29.8-7.6,55.5-7.6,41.3,0,76.4,11.5,107.5,30.8,25.8,16,57.7,45,62.9,92.2,1.2,10.8-1,20.1-6.6,27.6Z" fill="#fff" stroke-width="0"/>
          </g>
          <path d="M849.8,509c.5,3.2-1.2,5.9-3,8.4-14,18.4-31,32.3-53,38-29,7.5-55.4.4-79.5-18-4.5-3.5-8.7-7.5-13-11.3-5.2-4.6-6-11.6-1.9-16.3,3.6-4.2,9.4-3.9,14.3,1.3,14.6,15.5,31.8,24.9,52.5,26.5,22.6,1.8,41.8-5.9,57.7-22.7,3.7-3.9,6.9-8.5,10.7-12.3,2.5-2.6,5.5-4.4,9.4-2.6,3.7,1.7,5.7,4.6,5.8,9.2Z" fill="#fff" stroke-width="0"/>
          <path d="M777.4,518.6c-23.8,1.1-40.6-7.5-54.1-23.9-3.2-3.9-4.9-8.4-2.3-13.5,2.2-4.2,5.8-4.8,9.8-4.2,3,.5,4.9,2.8,6.7,5.2,16.7,22.1,52.6,22.9,68.2-3.8,1.4-2.3,2.8-4.9,5.4-5.8,3.5-1.3,7.4-1.3,9.8,1.4,2.4,2.7,3.2,6.8,2,10.8-.9,3.2-2.8,5.9-4.7,8.6-11,15.4-25.6,24.1-41,25.2Z" fill="#fff" stroke-width="0"/>
          <path d="M789.3,456.7c.5,11-7.1,19.9-17.5,20.4-10.7.5-19.6-8.1-20.1-19.4-.5-10.6,7.5-19.5,17.9-20,10.7-.5,19.2,7.7,19.7,19Z" fill="#fff" stroke-width="0"/>
        </g>
        <g>
          <path d="M619.2,765.1c0,25.1-18.9,36.2-45.5,36.2s-47.7-12.5-48.2-38.1h23c.3,11.7,10.1,18.9,25.4,18.9s22.2-6,22.2-16.1-3.4-11.3-17.7-14.4c-14.1-3.1-23.2-5.2-31.2-8.8-12.2-5.5-19.1-13.7-19.1-28.2,0-20.4,13.9-35,41.7-35s45,15.6,45.8,37.4h-22.7c-1.2-11.7-8.2-17.3-22.7-17.3s-20.4,4.8-20.4,13.4,5,11.3,17.7,14.4c12.9,3.1,25.4,6.2,33.8,10,10,4.5,17.8,11.5,17.8,27.6Z" fill="#fff" stroke-width="0"/>
          <path d="M664.9,781.9c-11,0-18.2-8.2-18.9-20.9h58.2c0-33.5-13.7-50.3-39.7-50.3s-40.8,16.8-40.8,42.9,14.1,46,42.2,46,31.9-9.8,37.1-27.1h-23c-1.5,5.8-7.9,9.4-15.1,9.4ZM646.7,746.9c.9-11.7,8.2-18.5,17.2-18.5s17,6,17.3,18.5h-34.5Z" fill="#fff" stroke-width="0"/>
          <path d="M867.9,781.9c-11,0-18.2-8.2-18.9-20.9h58.2c0-33.5-13.7-50.3-39.7-50.3s-40.8,16.8-40.8,42.9,14.1,46,42.2,46,31.9-9.8,37.1-27.1h-23c-1.5,5.8-7.9,9.4-15.1,9.4ZM884.2,746.9h-34.5c.9-11.7,8.2-18.5,17.2-18.5s17,6,17.3,18.5Z" fill="#fff" stroke-width="0"/>
          <path d="M760.8,710.7v22.8c-2.1-.3-4.1-.5-6.2-.5-13.7,0-20.4,6.9-20.4,20.4v43.9h-22.3v-84.4h20.9v10.1c7.4-11.3,16-12.4,25.1-12.4h2.9Z" fill="#fff" stroke-width="0"/>
          <polygon points="840.7 683.4 840.7 703.3 806.2 703.3 806.2 797.4 782.3 797.4 782.3 703.3 748 703.3 748 683.4 840.7 683.4" fill="#fff" stroke-width="0"/>
          <path d="M968.9,766.8h22.5c-2.4,19.6-18.4,32.8-38.8,32.8s-38.8-15.3-38.8-45.5,15.8-43.4,39.5-43.4,36.9,12.5,38.3,32.4h-22.5c-1.2-8.8-7.5-13.9-16-13.9s-17.2,6-17.2,24.4,7.7,27.3,16.5,27.3,15.6-5,16.5-14.1Z" fill="#fff" stroke-width="0"/>
          <path d="M1074.5,737.7v59.7h-22.5v-52.3c0-12.7-4.3-16.7-14.4-16.7s-17.3,9.3-17.3,20.6v48.4h-22.3v-115.3h22.3v41.9c3.3-7.6,13.6-13.2,24.9-13.2,17.3,0,29.3,10.1,29.3,27Z" fill="#fff" stroke-width="0"/>
        </g>
      </g>
    </g>
  </g>
</svg>